<?xml version="1.0" encoding="UTF-8"?>
<svg version="1.1" xmlns="http://www.w3.org/2000/svg" width="512" height="512">
<path d="M0 0 C28.28325512 25.17259676 46.92401916 56.25903594 55.7734375 93.08496094 C55.95277832 93.82020996 56.13211914 94.55545898 56.31689453 95.31298828 C65.8079482 136.37805364 56.13921208 182.35283953 34.7734375 218.08496094 C31.67889634 222.9308755 28.27823651 227.53058115 24.7734375 232.08496094 C23.73123047 233.46361328 23.73123047 233.46361328 22.66796875 234.87011719 C7.27048024 254.48530424 -12.04366872 269.80705263 -34.2265625 281.08496094 C-35.2990625 281.63539063 -36.3715625 282.18582031 -37.4765625 282.75292969 C-56.5798097 292.04188364 -78.80988806 298.15270391 -100.1171875 298.28808594 C-100.85534195 298.29505493 -101.5934964 298.30202393 -102.35401917 298.3092041 C-104.72825869 298.3265317 -107.10226234 298.33292556 -109.4765625 298.33496094 C-110.2858017 298.33596802 -111.09504089 298.3369751 -111.92880249 298.3380127 C-123.95902262 298.32786678 -135.46619307 297.81800454 -147.2265625 295.08496094 C-148.46664062 294.818125 -149.70671875 294.55128906 -150.984375 294.27636719 C-195.44927075 283.65577107 -232.93725442 253.69959828 -256.6328125 215.21386719 C-278.99075156 177.80249655 -285.29301309 131.6285323 -275.125 89.35839844 C-273.97920895 84.88300667 -272.65290661 80.47826405 -271.2265625 76.08496094 C-271.01161133 75.4169043 -270.79666016 74.74884766 -270.57519531 74.06054688 C-256.59933765 31.63159781 -224.68595122 -2.82935784 -185.2265625 -22.91503906 C-184.28941406 -23.40359375 -183.35226563 -23.89214844 -182.38671875 -24.39550781 C-123.76025753 -53.0141121 -49.15323643 -42.27609502 0 0 Z M-117.2265625 0.08496094 C-119.80228875 4.6728797 -119.47285499 9.26509666 -119.40258789 14.36987305 C-119.39817688 15.2973082 -119.39376587 16.22474335 -119.38922119 17.18028259 C-119.37939075 19.18988711 -119.36554206 21.19947511 -119.34813118 23.20902824 C-119.31572049 27.48295078 -119.3181619 31.7566312 -119.31841946 36.03065586 C-119.31827577 43.98453039 -119.30299442 51.93778676 -119.23022461 59.89135742 C-119.1808994 65.42830591 -119.17525975 70.96381686 -119.19836235 76.50091743 C-119.19893113 78.60887029 -119.18324161 80.71689309 -119.15092659 82.82459831 C-118.90732978 99.38174902 -118.90732978 99.38174902 -122.21554565 103.65286255 C-124.52388014 105.19178123 -126.63635662 106.13023826 -129.2265625 107.08496094 C-134.34351438 112.33656945 -136.85601623 118.79755104 -137.2265625 126.08496094 C-136.534818 135.25809453 -132.74816743 140.48331954 -126.4765625 146.89746094 C-119.97303773 151.27483338 -113.37012426 152.81398195 -105.60546875 151.64746094 C-101.05695472 150.57195023 -96.59147359 149.23835418 -93.98561096 145.12713623 C-93.55022507 144.42066956 -93.11483917 143.71420288 -92.66625977 142.98632812 C-89.96770418 139.85975397 -88.51556217 139.13905239 -84.39620972 138.36804199 C-79.39195369 138.02147204 -74.3904996 138.13504793 -69.37890625 138.22558594 C-67.51998527 138.22822642 -65.66105434 138.22675859 -63.80213928 138.22137451 C-58.91965205 138.21560721 -54.03861889 138.2539905 -49.15643311 138.30523682 C-41.33988493 138.38288095 -33.52343719 138.40669376 -25.70654488 138.40514374 C-22.98181478 138.41296987 -20.25838075 138.44779648 -17.53392029 138.4854126 C-15.85847326 138.49249134 -14.18302226 138.49870204 -12.50756836 138.50390625 C-11.75467529 138.52150497 -11.00178223 138.5391037 -10.22607422 138.55723572 C-5.07358176 138.54004762 -2.18166397 137.35047816 1.7734375 134.08496094 C4.12654682 130.66915708 4.7734375 128.74038754 4.7734375 124.58496094 C3.41253535 119.8218034 1.2660396 116.80954121 -2.89590454 113.92997742 C-6.30087872 112.6954508 -9.63130645 112.83522279 -13.20458984 112.87719727 C-14.00508255 112.87839569 -14.80557526 112.87959412 -15.63032532 112.88082886 C-17.36601298 112.88397561 -19.10169698 112.89128048 -20.83735275 112.90226173 C-23.586678 112.91712288 -26.33551738 112.91551388 -29.08486938 112.90861511 C-36.90081077 112.88978755 -44.71637427 112.88336269 -52.53222656 112.93041992 C-57.31582647 112.95803003 -62.09836448 112.95167497 -66.88194656 112.9234066 C-68.70237347 112.91914968 -70.522877 112.92761026 -72.34318161 112.94913673 C-74.89323081 112.97805149 -77.43972173 112.96368524 -79.98974609 112.93969727 C-80.73800156 112.95865555 -81.48625702 112.97761383 -82.25718689 112.99714661 C-85.2673465 112.93209153 -87.56302931 112.69798496 -89.82289505 110.61014366 C-90.81966026 109.37940268 -91.78489738 108.12252347 -92.71863365 106.84330463 C-94.38560511 104.89950685 -95.72263909 104.22817708 -98.0491333 103.22067261 C-101.2265625 101.08496094 -101.2265625 101.08496094 -101.85622406 99.22677994 C-102.11061006 96.7625586 -102.12361692 94.3904066 -102.06542969 91.91357422 C-102.07138657 90.9862851 -102.07734344 90.05899597 -102.08348083 89.10360718 C-102.09559773 86.03659172 -102.05907434 82.97207359 -102.0234375 79.90527344 C-102.02520482 77.77301475 -102.03048236 75.64075632 -102.03912354 73.5085144 C-102.05439959 67.89136753 -102.03050248 62.27511751 -101.99591064 56.65808105 C-101.94550307 47.67471964 -101.94708006 38.69139987 -101.96231842 29.70794296 C-101.96095534 26.57132587 -101.93860442 23.4353667 -101.91375732 20.29885864 C-101.91031237 18.37095234 -101.90745322 16.44304487 -101.90527344 14.51513672 C-101.89284103 13.64532166 -101.88040863 12.77550659 -101.86759949 11.8793335 C-101.88258571 6.86608216 -102.43458684 3.42805188 -105.2265625 -0.91503906 C-109.75346002 -4.02728111 -112.98572039 -3.06848576 -117.2265625 0.08496094 Z " fill="#000000" transform="translate(366.2265625,133.9150390625)"/>
<path d="M0 0 C0.87760986 0.64654541 0.87760986 0.64654541 1.77294922 1.30615234 C27.17394345 20.11829975 47.28086959 43.68031635 63 71 C63.36432129 71.6202002 63.72864258 72.24040039 64.10400391 72.87939453 C93.14573232 122.58149849 97.97645134 184.84566614 83.7265625 239.85546875 C74.72886766 272.83144954 58.34964272 303.79399989 34.9921875 328.85546875 C33.19306211 330.79217432 31.50290804 332.78148736 29.8125 334.8125 C22.26558027 343.4702981 13.39963073 351.42025849 4 358 C5.58199221 361.65140904 7.84431215 364.3127003 10.4375 367.3125 C44.42923982 407.41988238 44.42923982 407.41988238 43 426 C42.25 429.0625 42.25 429.0625 40 431 C30.50865737 433.465975 21.11578948 428.49247517 13 424 C2.09387907 417.51318399 -8.11013589 409.93018165 -18 402 C-18.96550781 401.22785156 -19.93101562 400.45570313 -20.92578125 399.66015625 C-26.14488416 395.43723066 -31.10529499 391.10838688 -35.83203125 386.3359375 C-37.98093431 384.73244136 -37.98093431 384.73244136 -40.8515625 385.12109375 C-44.24016679 386.06704408 -47.33410906 387.28816331 -50.5625 388.6875 C-101.70445086 409.89018112 -163.4156088 409.30537542 -214.52099609 388.39428711 C-216.36672496 387.61851629 -218.19959521 386.81234681 -220.03125 386.00390625 C-223.62206987 384.7675319 -223.62206987 384.7675319 -227 386 C-229.54182706 388.0314278 -229.54182706 388.0314278 -232.125 390.5625 C-275.42515303 431.01953239 -275.42515303 431.01953239 -298 431.1875 C-298.86625 431.20167969 -299.7325 431.21585938 -300.625 431.23046875 C-303 431 -303 431 -306 429 C-307.79935831 420.63298385 -304.71449019 413.33771527 -301 406 C-300.46503906 404.94296875 -299.93007813 403.8859375 -299.37890625 402.796875 C-290.95480863 387.21682349 -279.66533757 373.26039393 -268 360 C-269.44516167 356.49796801 -271.16402301 354.86348715 -274.1875 352.625 C-284.25809795 344.80857659 -294.04019547 335.98134218 -302 326 C-303.23943359 324.48212891 -303.23943359 324.48212891 -304.50390625 322.93359375 C-342.75525369 275.60760232 -360.53585202 216.09925932 -354.17529297 155.40771484 C-348.40969102 108.20427387 -329.24064321 65.48494608 -297.15625 30.37890625 C-295.20384564 28.22489491 -293.31722641 26.02972274 -291.4375 23.8125 C-287.93161147 19.80348851 -284.06693751 16.42550777 -280 13 C-279.08734375 12.18789062 -278.1746875 11.37578125 -277.234375 10.5390625 C-205.12634393 -53.14030481 -97.80271274 -58.29954591 0 0 Z M-274.015625 56.77294922 C-292.67438217 77.71354751 -306.12932026 103.18391243 -314 130 C-314.19432617 130.64437012 -314.38865234 131.28874023 -314.58886719 131.95263672 C-328.53500403 178.98738269 -321.06326614 230.2683983 -298 273 C-297.67386719 273.61214355 -297.34773438 274.22428711 -297.01171875 274.85498047 C-274.266537 317.27565062 -232.76436483 349.7389455 -186.85717773 363.60791016 C-168.75684637 368.80875526 -151.00292748 371.23538559 -132.1875 371.25 C-131.40721436 371.25067474 -130.62692871 371.25134949 -129.82299805 371.25204468 C-117.65325411 371.23534515 -105.91236511 370.69124405 -94 368 C-93.22382324 367.82839355 -92.44764648 367.65678711 -91.64794922 367.47998047 C-46.58148589 357.22802429 -6.27499563 331.40918983 21 294 C21.41991211 293.42443359 21.83982422 292.84886719 22.27246094 292.25585938 C39.19618512 268.71325478 49.66535881 242.40197202 55 214 C55.36931641 212.07800781 55.36931641 212.07800781 55.74609375 210.1171875 C63.04275176 163.51921982 51.03449268 113.44355932 24.09765625 74.8359375 C17.87957382 66.42936796 11.68705207 58.13505631 4 51 C-1 46 -1 46 -2.67578125 44.1484375 C-34.14791532 10.53742054 -83.31752238 -5.44040376 -128.1640625 -7.18359375 C-184.39835369 -8.1414925 -235.90992478 16.09179106 -274.015625 56.77294922 Z " fill="#000000" transform="translate(388,81)"/>
<path d="M0 0 C1.19882813 0.32871094 2.39765625 0.65742187 3.6328125 0.99609375 C18.07756036 5.35364295 31.2066314 12.622634 43 22 C43.66 22.50789063 44.32 23.01578125 45 23.5390625 C46.38238563 24.63345112 47.70174861 25.80701223 49 27 C49 27.66 49 28.32 49 29 C48.35264893 29.24532471 47.70529785 29.49064941 47.03833008 29.7434082 C26.05882224 37.75524564 6.28697373 46.87256529 -12 60 C-13.0209375 60.72703125 -14.041875 61.4540625 -15.09375 62.203125 C-34.32051496 76.26902147 -51.9294972 92.73687761 -66 112 C-66.85806152 113.15105017 -67.71613451 114.30209177 -68.57421875 115.453125 C-81.52702255 133.02364899 -90.91272619 152.23517946 -100 172 C-112.28586499 159.90250432 -120.08772924 145.46746995 -125 129 C-125.29414795 128.04528809 -125.29414795 128.04528809 -125.59423828 127.07128906 C-133.74420836 99.76255858 -129.518794 71.96050596 -116.49609375 47.1328125 C-107.24970833 30.95793665 -94.05518981 18.19008584 -78 9 C-77.02417969 8.43539063 -76.04835937 7.87078125 -75.04296875 7.2890625 C-52.89276495 -4.64962464 -24.04280425 -6.98655606 0 0 Z " fill="#000000" transform="translate(129,3)"/>
<path d="M0 0 C1.00804687 0.44214844 2.01609375 0.88429688 3.0546875 1.33984375 C26.95995146 12.54737659 44.77186765 33.49493933 54 58 C60.56087745 77.86953829 61.83663509 100.78654514 56 121 C55.73316406 121.99 55.46632813 122.98 55.19140625 124 C50.53035874 139.57825656 41.92490315 155.00925264 31 167 C28.911579 164.36783496 27.3681357 161.88594925 26.0546875 158.796875 C25.70462646 157.98927734 25.35456543 157.18167969 24.99389648 156.34960938 C24.62466064 155.49173828 24.2554248 154.63386719 23.875 153.75 C12.88231401 128.81244874 -2.5901362 104.89518556 -22.1875 85.8125 C-23.115625 84.884375 -24.04375 83.95625 -25 83 C-25 82.34 -25 81.68 -25 81 C-25.59039062 80.74089844 -26.18078125 80.48179688 -26.7890625 80.21484375 C-29.16697393 78.90825284 -30.54447428 77.55454269 -32.375 75.5625 C-38.06910638 69.73131328 -44.50232737 64.89185633 -51 60 C-51.85537354 59.35345459 -51.85537354 59.35345459 -52.72802734 58.69384766 C-72.85391299 43.59216461 -95.26247891 32.25944864 -119 24 C-114.63657533 12.84066678 -95.57695049 4.99332293 -85.27734375 0.2421875 C-81.55617671 -1.34179591 -77.84310924 -2.74792447 -74 -4 C-73.35466309 -4.21027832 -72.70932617 -4.42055664 -72.04443359 -4.63720703 C-48.70736396 -11.8279167 -22.17932343 -9.75556707 0 0 Z " fill="#000000" transform="translate(453,8)"/>
</svg>
